<svg xmlns="http://www.w3.org/2000/svg" xmlns:xlink="http://www.w3.org/1999/xlink" width="500" zoomAndPan="magnify" viewBox="0 0 375 374.999991" height="500" preserveAspectRatio="xMidYMid meet" version="1.0"><defs><g/></defs><path fill="#8e99a2" d="M 141.117188 236.867188 L 142.867188 238.597656 L 143.039062 238.773438 C 148.484375 244.410156 148.425781 253.492188 142.867188 259.054688 C 137.304688 264.617188 128.226562 264.675781 122.589844 259.230469 L 122.417969 259.054688 L 120.667969 257.324219 L 115.902344 252.539062 C 110.285156 246.921875 110.285156 237.722656 115.902344 232.082031 C 121.523438 226.464844 130.734375 226.464844 136.355469 232.082031 Z M 237.570312 157.722656 L 239.261719 156.027344 L 241.207031 154.085938 L 259.03125 136.253906 C 264.648438 130.632812 264.648438 121.433594 259.03125 115.792969 C 253.394531 110.175781 244.199219 110.175781 238.582031 115.792969 L 220.757812 133.628906 L 218.8125 135.570312 L 217.121094 137.261719 L 206.898438 147.492188 C 201.28125 153.113281 201.28125 162.308594 206.898438 167.949219 L 217.121094 178.179688 L 218.949219 179.988281 L 238.71875 199.761719 C 244.335938 205.382812 253.53125 205.382812 259.167969 199.761719 C 264.785156 194.144531 264.785156 184.925781 259.167969 179.304688 L 239.398438 159.53125 Z M 116.71875 115.929688 L 116.71875 115.910156 C 122.339844 110.292969 131.550781 110.292969 137.171875 115.910156 L 258.894531 237.703125 C 264.535156 243.324219 264.535156 252.539062 258.894531 258.160156 C 253.277344 263.78125 244.082031 263.78125 238.445312 258.160156 L 116.71875 136.367188 C 111.101562 130.75 111.101562 121.550781 116.71875 115.929688 Z M 116.546875 174.230469 C 122.164062 168.609375 131.359375 168.609375 136.996094 174.230469 L 150.855469 188.097656 L 180.847656 218.101562 L 200.617188 237.878906 C 206.234375 243.496094 206.234375 252.714844 200.617188 258.335938 C 194.980469 263.957031 185.785156 263.957031 180.167969 258.335938 L 160.398438 238.558594 L 130.40625 208.554688 L 116.546875 194.6875 C 110.929688 189.066406 110.929688 179.851562 116.546875 174.230469 Z M 116.546875 174.230469 " fill-opacity="1" fill-rule="evenodd"/><g fill="#ffffff" fill-opacity="1"><g transform="translate(101.956251, 207.749986)"><g><path d="M 27.84375 -8.40625 L 27.84375 0 L 2.78125 0 L 2.78125 -36.359375 L 27.3125 -36.359375 L 27.3125 -28.25 L 11.78125 -28.25 L 11.78125 -22.21875 L 25.171875 -22.21875 L 25.171875 -14.671875 L 11.78125 -14.671875 L 11.78125 -8.40625 Z M 27.84375 -8.40625 "/></g></g></g><g fill="#ffffff" fill-opacity="1"><g transform="translate(131.244312, 207.749986)"><g><path d="M 31.140625 -10.671875 C 31.140625 -6.992188 30.066406 -4.296875 27.921875 -2.578125 C 25.773438 -0.859375 22.40625 0 17.8125 0 L 2.78125 0 L 2.78125 -36.359375 L 17.8125 -36.359375 C 21.976562 -36.359375 24.941406 -35.632812 26.703125 -34.1875 C 28.460938 -32.738281 29.34375 -30.3125 29.34375 -26.90625 C 29.34375 -24.738281 29.050781 -23.082031 28.46875 -21.9375 C 27.894531 -20.800781 26.738281 -19.925781 25 -19.3125 C 27.082031 -18.882812 28.625 -17.957031 29.625 -16.53125 C 30.632812 -15.101562 31.140625 -13.148438 31.140625 -10.671875 Z M 21.046875 -25.578125 C 21.046875 -26.847656 20.804688 -27.734375 20.328125 -28.234375 C 19.847656 -28.742188 19.007812 -29 17.8125 -29 L 11.78125 -29 L 11.78125 -21.640625 L 17.8125 -21.640625 C 19.007812 -21.640625 19.847656 -21.9375 20.328125 -22.53125 C 20.804688 -23.132812 21.046875 -24.148438 21.046875 -25.578125 Z M 22.453125 -11.25 C 22.453125 -12.644531 22.101562 -13.617188 21.40625 -14.171875 C 20.707031 -14.734375 19.507812 -15.015625 17.8125 -15.015625 L 11.78125 -15.015625 L 11.78125 -7.65625 L 17.8125 -7.65625 C 19.507812 -7.65625 20.707031 -7.925781 21.40625 -8.46875 C 22.101562 -9.007812 22.453125 -9.9375 22.453125 -11.25 Z M 22.453125 -11.25 "/></g></g></g><g fill="#ffffff" fill-opacity="1"><g transform="translate(163.548166, 207.749986)"><g><path d="M 35.78125 -18.21875 C 35.78125 -11.601562 34.4375 -6.816406 31.75 -3.859375 C 29.0625 -0.898438 24.703125 0.578125 18.671875 0.578125 C 12.367188 0.578125 7.941406 -0.8125 5.390625 -3.59375 C 2.835938 -6.375 1.5625 -11.25 1.5625 -18.21875 C 1.5625 -24.820312 2.90625 -29.59375 5.59375 -32.53125 C 8.28125 -35.476562 12.640625 -36.953125 18.671875 -36.953125 C 24.972656 -36.953125 29.398438 -35.554688 31.953125 -32.765625 C 34.503906 -29.984375 35.78125 -25.132812 35.78125 -18.21875 Z M 11.78125 -10.4375 C 12.28125 -9.46875 13.019531 -8.789062 14 -8.40625 C 14.988281 -8.019531 16.546875 -7.828125 18.671875 -7.828125 C 20.796875 -7.828125 22.351562 -8.019531 23.34375 -8.40625 C 24.332031 -8.789062 25.078125 -9.46875 25.578125 -10.4375 C 25.960938 -11.207031 26.242188 -12.210938 26.421875 -13.453125 C 26.597656 -14.691406 26.6875 -16.28125 26.6875 -18.21875 C 26.6875 -20.1875 26.597656 -21.796875 26.421875 -23.046875 C 26.242188 -24.304688 25.960938 -25.320312 25.578125 -26.09375 C 25.109375 -27.101562 24.378906 -27.8125 23.390625 -28.21875 C 22.410156 -28.625 20.835938 -28.828125 18.671875 -28.828125 C 16.503906 -28.828125 14.925781 -28.625 13.9375 -28.21875 C 12.957031 -27.8125 12.238281 -27.101562 11.78125 -26.09375 C 11.382812 -25.320312 11.097656 -24.304688 10.921875 -23.046875 C 10.753906 -21.796875 10.671875 -20.1875 10.671875 -18.21875 C 10.671875 -16.28125 10.753906 -14.691406 10.921875 -13.453125 C 11.097656 -12.210938 11.382812 -11.207031 11.78125 -10.4375 Z M 11.78125 -10.4375 "/></g></g></g><g fill="#ffffff" fill-opacity="1"><g transform="translate(200.897685, 207.749986)"><g><path d="M 35.78125 -18.21875 C 35.78125 -11.601562 34.4375 -6.816406 31.75 -3.859375 C 29.0625 -0.898438 24.703125 0.578125 18.671875 0.578125 C 12.367188 0.578125 7.941406 -0.8125 5.390625 -3.59375 C 2.835938 -6.375 1.5625 -11.25 1.5625 -18.21875 C 1.5625 -24.820312 2.90625 -29.59375 5.59375 -32.53125 C 8.28125 -35.476562 12.640625 -36.953125 18.671875 -36.953125 C 24.972656 -36.953125 29.398438 -35.554688 31.953125 -32.765625 C 34.503906 -29.984375 35.78125 -25.132812 35.78125 -18.21875 Z M 11.78125 -10.4375 C 12.28125 -9.46875 13.019531 -8.789062 14 -8.40625 C 14.988281 -8.019531 16.546875 -7.828125 18.671875 -7.828125 C 20.796875 -7.828125 22.351562 -8.019531 23.34375 -8.40625 C 24.332031 -8.789062 25.078125 -9.46875 25.578125 -10.4375 C 25.960938 -11.207031 26.242188 -12.210938 26.421875 -13.453125 C 26.597656 -14.691406 26.6875 -16.28125 26.6875 -18.21875 C 26.6875 -20.1875 26.597656 -21.796875 26.421875 -23.046875 C 26.242188 -24.304688 25.960938 -25.320312 25.578125 -26.09375 C 25.109375 -27.101562 24.378906 -27.8125 23.390625 -28.21875 C 22.410156 -28.625 20.835938 -28.828125 18.671875 -28.828125 C 16.503906 -28.828125 14.925781 -28.625 13.9375 -28.21875 C 12.957031 -27.8125 12.238281 -27.101562 11.78125 -26.09375 C 11.382812 -25.320312 11.097656 -24.304688 10.921875 -23.046875 C 10.753906 -21.796875 10.671875 -20.1875 10.671875 -18.21875 C 10.671875 -16.28125 10.753906 -14.691406 10.921875 -13.453125 C 11.097656 -12.210938 11.382812 -11.207031 11.78125 -10.4375 Z M 11.78125 -10.4375 "/></g></g></g><g fill="#ffffff" fill-opacity="1"><g transform="translate(238.247204, 207.749986)"><g><path d="M 21.859375 -18.734375 L 35.5 0 L 24.125 0 L 14.203125 -14.84375 L 11.78125 -14.84375 L 11.78125 0 L 2.78125 0 L 2.78125 -36.359375 L 11.78125 -36.359375 L 11.78125 -22.046875 L 14.203125 -22.046875 L 24.25 -36.359375 L 35.03125 -36.359375 Z M 21.859375 -18.734375 "/></g></g></g></svg>